HIERARCHY
ROOT Hips
{
	OFFSET -0.001795 -0.223333 0.028219
	CHANNELS 6 Xposition Yposition Zposition Zrotation Yrotation Xrotation 
	JOINT LeftUpLeg
	{
		OFFSET 0.069520 -0.091406 -0.006815
		CHANNELS 3 Zrotation Yrotation Xrotation
		JOINT LeftLeg
		{
			OFFSET 0.034277 -0.375199 -0.004496
			CHANNELS 3 Zrotation Yrotation Xrotation
			JOINT LeftFoot
			{
				OFFSET -0.013596 -0.397961 -0.043693
				CHANNELS 3 Zrotation Yrotation Xrotation
				JOINT LeftToe
				{
					OFFSET 0.026358 -0.055791 0.119288
					CHANNELS 3 Zrotation Yrotation Xrotation
					End Site
					{
						OFFSET 0.000000 0.000000 0.000000
					}
				}
			}
		}
	}
	JOINT RightUpLeg
	{
		OFFSET -0.067670 -0.090522 -0.004320
		CHANNELS 3 Zrotation Yrotation Xrotation
		JOINT RightLeg
		{
			OFFSET -0.038290 -0.382569 -0.008850
			CHANNELS 3 Zrotation Yrotation Xrotation
			JOINT RightFoot
			{
				OFFSET 0.015774 -0.398415 -0.042312
				CHANNELS 3 Zrotation Yrotation Xrotation
				JOINT RightToe
				{
					OFFSET -0.025372 -0.048144 0.123348
					CHANNELS 3 Zrotation Yrotation Xrotation
					End Site
					{
						OFFSET 0.000000 0.000000 0.000000
					}
				}
			}
		}
	}
	JOINT Spine
	{
		OFFSET -0.002533 0.108963 -0.026696
		CHANNELS 3 Zrotation Yrotation Xrotation
		JOINT Spine1
		{
			OFFSET 0.005487 0.135180 0.001092
			CHANNELS 3 Zrotation Yrotation Xrotation
			JOINT Spine2
			{
				OFFSET 0.001457 0.052922 0.025425
				CHANNELS 3 Zrotation Yrotation Xrotation
				JOINT Neck
				{
					OFFSET -0.002778 0.213870 -0.042857
					CHANNELS 3 Zrotation Yrotation Xrotation
					JOINT Head
					{
						OFFSET 0.005152 0.064970 0.051349
						CHANNELS 3 Zrotation Yrotation Xrotation
						End Site
						{
							OFFSET 0.000000 0.000000 0.000000
						}
					}
				}
				JOINT LeftShoulder
				{
					OFFSET 0.078845 0.121749 -0.034090
					CHANNELS 3 Zrotation Yrotation Xrotation
					JOINT LeftArm
					{
						OFFSET 0.090977 0.030469 -0.008868
						CHANNELS 3 Zrotation Yrotation Xrotation
						JOINT LeftForeArm
						{
							OFFSET 0.259612 -0.012772 -0.027456
							CHANNELS 3 Zrotation Yrotation Xrotation
							JOINT LeftHand
							{
								OFFSET 0.249234 0.008986 -0.001171
								CHANNELS 3 Zrotation Yrotation Xrotation
								End Site
								{
									OFFSET 0.000000 0.000000 0.000000
								}
							}
						}
					}
				}
				JOINT RightShoulder
				{
					OFFSET -0.081759 0.118833 -0.038615
					CHANNELS 3 Zrotation Yrotation Xrotation
					JOINT RightArm
					{
						OFFSET -0.096012 0.032551 -0.009143
						CHANNELS 3 Zrotation Yrotation Xrotation
						JOINT RightForeArm
						{
							OFFSET -0.253742 -0.013329 -0.021401
							CHANNELS 3 Zrotation Yrotation Xrotation
							JOINT RightHand
							{
								OFFSET -0.255298 0.007772 -0.005559
								CHANNELS 3 Zrotation Yrotation Xrotation
								End Site
								{
									OFFSET 0.000000 0.000000 0.000000
								}
							}
						}
					}
				}
			}
		}
	}
}
MOTION
Frames: 9
Frame Time: 0.050000
0.000000 0.956405 0.000000 -3.259015 -3.635947 2.203686 -0.917935 -0.317491 -3.282132 -0.409385 -0.179985 8.864378 1.582359 3.923236 1.600331 0.000000 0.000000 0.000000 4.134051 0.995102 -8.239771 -0.131527 1.094185 21.129305 1.438402 2.914894 1.192162 0.000000 0.000000 0.000000 5.038685 -0.233115 1.862088 -1.629143 0.784786 -8.454162 -1.477544 3.959026 13.015082 8.569581 -3.678051 -18.705665 0.000000 0.000000 0.000000 -15.494320 5.194131 -4.246296 -57.004256 -0.906057 -7.206254 -1.210746 -20.668194 1.044444 0.000000 0.000000 0.000000 18.774628 -11.968592 -7.569236 62.843087 -1.752936 -7.841130 -2.701860 23.346250 0.575862 0.000000 0.000000 0.000000 
0.001050 0.956686 -0.000366 -3.815864 -3.432233 2.339002 0.311261 -0.310003 -3.439216 -1.328461 -0.008935 9.209324 2.001580 4.234382 -0.122377 0.000000 0.000000 0.000000 4.530326 1.157443 -9.245967 0.295672 1.042646 22.651096 1.510056 2.686253 1.847862 0.000000 0.000000 0.000000 5.455811 -0.198065 1.293635 -1.158328 0.595841 -7.302272 -2.063363 4.240968 12.492551 8.721965 -3.501488 -19.765460 0.000000 0.000000 0.000000 -15.466877 6.088623 -4.798085 -58.005131 -0.996357 -7.254101 0.690593 -21.682640 0.714102 0.000000 0.000000 0.000000 18.359686 -13.532325 -8.255643 64.419819 -3.139997 -8.658663 -4.277832 25.685921 0.365400 0.000000 0.000000 0.000000 
0.001836 0.955862 -0.000413 -3.291547 -3.541982 2.307360 -0.306370 -0.310239 -3.316570 -0.767068 -0.123265 9.469143 1.881655 3.899460 -0.366386 0.000000 0.000000 0.000000 4.682732 1.112342 -8.893507 -0.591495 1.294923 22.228390 1.260715 3.032022 0.322972 0.000000 0.000000 0.000000 5.271438 -0.141135 0.711547 -1.416678 0.699494 -7.660368 -1.897127 4.019366 12.982541 7.894528 -3.195527 -18.931707 0.000000 0.000000 0.000000 -14.912967 5.690719 -4.425792 -59.144215 -1.116150 -7.401385 1.034613 -20.596577 0.641879 0.000000 0.000000 0.000000 17.534003 -12.890096 -7.793792 64.575205 -3.559016 -8.967067 -4.500654 24.571252 0.283974 0.000000 0.000000 0.000000 
0.002366 0.956771 -0.000394 -3.558918 -4.415171 2.308621 -0.489146 -0.296595 -3.123324 -0.662861 -0.134792 9.709371 2.054394 4.245895 -0.477051 0.000000 0.000000 0.000000 4.758540 1.027014 -8.319501 -0.586687 1.286856 21.419028 1.577625 4.057287 0.010634 0.000000 0.000000 0.000000 5.245788 -0.079646 0.042801 -1.165612 0.573642 -6.016006 -1.785901 4.999863 12.307538 7.717252 -2.926363 -19.372317 0.000000 0.000000 0.000000 -14.953592 7.058066 -5.214189 -59.893463 -0.934046 -7.533239 1.767301 -21.586183 0.503414 0.000000 0.000000 0.000000 17.548916 -13.717387 -8.155133 64.534400 -3.489145 -8.806597 -4.915803 24.849733 0.232301 0.000000 0.000000 0.000000 
0.002731 0.956949 -0.000452 -3.290145 -4.409245 2.009916 -0.675917 -0.275235 -2.864769 -0.566583 -0.156544 9.800546 2.305622 4.778797 -0.499699 0.000000 0.000000 0.000000 4.509552 0.845798 -7.117364 -0.821329 1.245422 19.862503 1.285591 3.673636 -0.536892 0.000000 0.000000 0.000000 4.840268 -0.076600 0.126585 -0.909199 0.466639 -5.895142 -1.649577 5.389292 12.429319 7.644018 -2.877109 -19.125419 0.000000 0.000000 0.000000 -15.211588 6.995559 -5.302717 -60.263289 -1.177632 -7.481860 2.275891 -21.260668 0.385381 0.000000 0.000000 0.000000 16.846035 -13.204203 -7.665775 64.683643 -3.125381 -8.603144 -5.529900 24.096328 0.133479 0.000000 0.000000 0.000000 
0.002882 0.957426 -0.000552 -3.349474 -4.562571 1.801763 -0.642689 -0.249706 -2.600221 -0.724002 -0.126425 10.070006 2.456811 5.015452 -0.804074 0.000000 0.000000 0.000000 4.477959 0.717555 -6.218803 -0.957503 1.231643 19.043991 1.429658 4.355390 -0.961422 0.000000 0.000000 0.000000 4.851655 -0.072508 0.120393 -0.965651 0.486298 -5.660355 -1.517460 5.581326 12.509608 7.408628 -2.724981 -19.105141 0.000000 0.000000 0.000000 -15.492089 7.668036 -5.711162 -60.621894 -1.130080 -7.561148 1.778652 -21.445913 0.477322 0.000000 0.000000 0.000000 16.576937 -13.113845 -7.547406 64.432933 -2.669917 -8.316913 -5.527853 23.579967 0.134245 0.000000 0.000000 0.000000 
0.002948 0.957494 -0.000720 -3.289421 -4.731752 1.514001 -0.719117 -0.202416 -2.098011 -0.761288 -0.110507 9.722669 2.582331 5.315461 -0.720909 0.000000 0.000000 0.000000 4.268608 0.645276 -5.725088 -0.999594 1.204617 18.408200 1.413048 4.128168 -0.707386 0.000000 0.000000 0.000000 4.670243 -0.095032 0.474943 -0.879877 0.447483 -5.574520 -1.606151 5.516997 12.342983 7.538898 -2.829192 -19.035443 0.000000 0.000000 0.000000 -15.959815 7.567901 -5.738594 -60.514638 -0.548856 -7.816548 1.562079 -21.838858 0.531940 0.000000 0.000000 0.000000 16.476740 -12.605308 -7.283577 64.367651 -2.307150 -8.116400 -5.541351 24.257641 0.124832 0.000000 0.000000 0.000000 
0.003035 0.957557 -0.000905 -3.281129 -4.485637 1.409955 -0.586353 -0.209778 -2.191392 -0.761093 -0.122593 10.189138 2.677349 5.399177 -1.115271 0.000000 0.000000 0.000000 4.188987 0.650038 -5.750437 -0.993543 1.201210 18.525410 1.152655 3.707197 -1.089104 0.000000 0.000000 0.000000 4.624804 -0.123894 0.845959 -1.031729 0.514661 -5.480034 -1.490170 5.191547 12.313366 7.356562 -2.765096 -18.896237 0.000000 0.000000 0.000000 -16.217519 7.398106 -5.670627 -60.325938 -0.705959 -7.697249 0.788801 -22.017072 0.693408 0.000000 0.000000 0.000000 16.454075 -12.167652 -7.081740 64.379428 -1.652244 -7.781425 -5.329563 24.697973 0.155033 0.000000 0.000000 0.000000 
0.003377 0.958073 -0.000943 -3.275222 -4.492083 1.349491 -0.690510 -0.216020 -2.243288 -0.662598 -0.144231 10.255775 2.780809 5.676341 -0.932002 0.000000 0.000000 0.000000 3.931815 0.684092 -6.031025 -0.955630 1.204253 18.709342 0.827964 2.929516 -1.211519 0.000000 0.000000 0.000000 4.628166 -0.144397 1.107052 -1.012436 0.506108 -5.423271 -1.658071 5.355164 12.296086 7.369459 -2.708790 -19.162707 0.000000 0.000000 0.000000 -16.058015 6.814560 -5.379935 -60.218445 -0.994050 -7.545062 0.451169 -22.138870 0.750728 0.000000 0.000000 0.000000 17.023821 -11.834456 -6.973435 64.015129 -0.746251 -7.262188 -5.050611 25.376062 0.230014 0.000000 0.000000 0.000000 
